STARTFONT 2.1
COMMENT Exported by Fony v1.4.7
FONT leaf_icons
SIZE 13 96 96
FONTBOUNDINGBOX 14 12 0 0
STARTPROPERTIES 6
COPYRIGHT ""
RESOLUTION_X 96
RESOLUTION_Y 96
FONT_ASCENT 13
FONT_DESCENT 0
DEFAULT_CHAR 0
ENDPROPERTIES
CHARS 96
STARTCHAR 032
ENCODING 32
SWIDTH 288 0
DWIDTH 4 0
BBX 0 0 0 0
BITMAP
ENDCHAR
STARTCHAR 033
ENCODING 33
SWIDTH 288 0
DWIDTH 4 0
BBX 4 10 0 1
BITMAP
F0
F0
F0
F0
60
60
60
00
60
60
ENDCHAR
STARTCHAR 034
ENCODING 34
SWIDTH 720 0
DWIDTH 10 0
BBX 10 10 0 1
BITMAP
0C00
1E00
1200
3300
3300
7380
7F80
F3C0
F3C0
7F80
ENDCHAR
STARTCHAR 035
ENCODING 35
SWIDTH 792 0
DWIDTH 11 0
BBX 9 9 1 1
BITMAP
7F00
8080
BE80
8080
BE80
8080
BE80
8080
7F00
ENDCHAR
STARTCHAR 036
ENCODING 36
SWIDTH 792 0
DWIDTH 11 0
BBX 11 11 0 0
BITMAP
7FC0
C060
BFA0
A0A0
BFA0
A0A0
BFA0
A0A0
BFA0
C060
7FC0
ENDCHAR
STARTCHAR 037
ENCODING 37
SWIDTH 504 0
DWIDTH 7 0
BBX 5 9 1 1
BITMAP
20
30
A8
70
20
70
A8
30
20
ENDCHAR
STARTCHAR 038
ENCODING 38
SWIDTH 504 0
DWIDTH 7 0
BBX 7 11 0 0
BITMAP
7C
EE
E6
AA
C6
EE
C6
AA
E6
EE
7C
ENDCHAR
STARTCHAR 039
ENCODING 39
SWIDTH 792 0
DWIDTH 11 0
BBX 9 9 1 1
BITMAP
3E00
7F00
C180
9C80
3E00
6300
0800
1C00
1C00
ENDCHAR
STARTCHAR 040
ENCODING 40
SWIDTH 792 0
DWIDTH 11 0
BBX 11 11 0 0
BITMAP
7FC0
E0E0
C060
9F20
B1A0
E0E0
CE60
FBE0
F1E0
F1E0
7FC0
ENDCHAR
STARTCHAR 041
ENCODING 41
SWIDTH 864 0
DWIDTH 12 0
BBX 11 11 0 1
BITMAP
0400
1F00
2080
4040
4040
C060
4040
4040
2080
1F00
0400
ENDCHAR
STARTCHAR 042
ENCODING 42
SWIDTH 864 0
DWIDTH 12 0
BBX 11 11 0 1
BITMAP
C460
9F20
2080
4040
4040
C060
4040
4040
2080
9F20
C460
ENDCHAR
STARTCHAR 043
ENCODING 43
SWIDTH 864 0
DWIDTH 12 0
BBX 11 11 0 1
BITMAP
0400
1F00
2080
4E40
5F40
DF60
5F40
4E40
2080
1F00
0400
ENDCHAR
STARTCHAR 044
ENCODING 44
SWIDTH 864 0
DWIDTH 12 0
BBX 12 12 0 0
BITMAP
0400
1F00
2080
4040
4000
C220
4770
43E0
21C0
13E0
0770
0220
ENDCHAR
STARTCHAR 045
ENCODING 45
SWIDTH 792 0
DWIDTH 11 0
BBX 11 11 0 0
BITMAP
7FC0
FBE0
F1E0
EEE0
DF60
9F20
DF60
EEE0
F1E0
FBE0
7FC0
ENDCHAR
STARTCHAR 046
ENCODING 46
SWIDTH 648 0
DWIDTH 9 0
BBX 0 0 0 0
BITMAP
ENDCHAR
STARTCHAR 047
ENCODING 47
SWIDTH 1008 0
DWIDTH 14 0
BBX 13 7 0 4
BITMAP
FFF0
8210
8E18
BFD8
8318
8210
FFF0
ENDCHAR
STARTCHAR 048
ENCODING 48
SWIDTH 1008 0
DWIDTH 14 0
BBX 13 7 0 4
BITMAP
FFF0
8010
8018
8018
8018
8010
FFF0
ENDCHAR
STARTCHAR 049
ENCODING 49
SWIDTH 1008 0
DWIDTH 14 0
BBX 13 7 0 4
BITMAP
FFF0
C010
C018
C018
C018
C010
FFF0
ENDCHAR
STARTCHAR 050
ENCODING 50
SWIDTH 1008 0
DWIDTH 14 0
BBX 13 7 0 4
BITMAP
FFF0
E010
E018
E018
E018
E010
FFF0
ENDCHAR
STARTCHAR 051
ENCODING 51
SWIDTH 1008 0
DWIDTH 14 0
BBX 13 7 0 4
BITMAP
FFF0
F010
F018
F018
F018
F010
FFF0
ENDCHAR
STARTCHAR 052
ENCODING 52
SWIDTH 1008 0
DWIDTH 14 0
BBX 13 7 0 4
BITMAP
FFF0
F810
F818
F818
F818
F810
FFF0
ENDCHAR
STARTCHAR 053
ENCODING 53
SWIDTH 1008 0
DWIDTH 14 0
BBX 13 7 0 4
BITMAP
FFF0
FC10
FC18
FC18
FC18
FC10
FFF0
ENDCHAR
STARTCHAR 054
ENCODING 54
SWIDTH 1008 0
DWIDTH 14 0
BBX 13 7 0 4
BITMAP
FFF0
FE10
FE18
FE18
FE18
FE10
FFF0
ENDCHAR
STARTCHAR 055
ENCODING 55
SWIDTH 1008 0
DWIDTH 14 0
BBX 13 7 0 4
BITMAP
FFF0
FF10
FF18
FF18
FF18
FF10
FFF0
ENDCHAR
STARTCHAR 056
ENCODING 56
SWIDTH 1008 0
DWIDTH 14 0
BBX 13 7 0 4
BITMAP
FFF0
FF90
FF98
FF98
FF98
FF90
FFF0
ENDCHAR
STARTCHAR 057
ENCODING 57
SWIDTH 1008 0
DWIDTH 14 0
BBX 13 7 0 4
BITMAP
FFF0
FFD0
FFD8
FFD8
FFD8
FFD0
FFF0
ENDCHAR
STARTCHAR 058
ENCODING 58
SWIDTH 1008 0
DWIDTH 14 0
BBX 13 7 0 4
BITMAP
FFF0
FFF0
FFF8
FFF8
FFF8
FFF0
FFF0
ENDCHAR
STARTCHAR 059
ENCODING 59
SWIDTH 1008 0
DWIDTH 14 0
BBX 13 7 0 4
BITMAP
FFF0
FDF0
F1F8
C018
FC78
FDF0
FFF0
ENDCHAR
STARTCHAR 060
ENCODING 60
SWIDTH 792 0
DWIDTH 11 0
BBX 9 11 1 1
BITMAP
7F80
AA80
AA80
BF80
FF80
FF80
FF80
FF80
FF80
FF80
FF80
ENDCHAR
STARTCHAR 061
ENCODING 61
SWIDTH 792 0
DWIDTH 11 0
BBX 10 12 1 0
BITMAP
7F80
8080
AA80
AA80
A000
8880
9DC0
8F80
8700
8F80
DDC0
0880
ENDCHAR
STARTCHAR 062
ENCODING 62
SWIDTH 792 0
DWIDTH 11 0
BBX 11 10 0 0
BITMAP
0E00
3180
4040
8020
8020
4040
2080
1100
0A00
0400
ENDCHAR
STARTCHAR 063
ENCODING 63
SWIDTH 792 0
DWIDTH 11 0
BBX 11 10 0 0
BITMAP
0E00
3180
4040
8020
8020
4040
2E80
1F00
0E00
0400
ENDCHAR
STARTCHAR 064
ENCODING 64
SWIDTH 792 0
DWIDTH 11 0
BBX 11 10 0 0
BITMAP
0E00
3180
4040
8E20
BFA0
71C0
2E80
1F00
0E00
0400
ENDCHAR
STARTCHAR 065
ENCODING 65
SWIDTH 792 0
DWIDTH 11 0
BBX 11 10 0 0
BITMAP
0E00
3F80
71C0
CE60
BFA0
71C0
2E80
1F00
0E00
0400
ENDCHAR
STARTCHAR 066
ENCODING 66
SWIDTH 792 0
DWIDTH 11 0
BBX 11 10 0 0
BITMAP
0E00
3180
4000
8440
8EE0
47C0
2380
07C0
0EE0
0440
ENDCHAR
STARTCHAR 067
ENCODING 67
SWIDTH 792 0
DWIDTH 11 0
BBX 11 10 0 0
BITMAP
0E00
3F80
7F00
FF60
FF60
7F60
3F60
1F00
0E60
0460
ENDCHAR
STARTCHAR 068
ENCODING 68
SWIDTH 936 0
DWIDTH 13 0
BBX 0 0 0 0
BITMAP
ENDCHAR
STARTCHAR 069
ENCODING 69
SWIDTH 936 0
DWIDTH 13 0
BBX 0 0 0 0
BITMAP
ENDCHAR
STARTCHAR 070
ENCODING 70
SWIDTH 936 0
DWIDTH 13 0
BBX 0 0 0 0
BITMAP
ENDCHAR
STARTCHAR 071
ENCODING 71
SWIDTH 936 0
DWIDTH 13 0
BBX 0 0 0 0
BITMAP
ENDCHAR
STARTCHAR 072
ENCODING 72
SWIDTH 936 0
DWIDTH 13 0
BBX 0 0 0 0
BITMAP
ENDCHAR
STARTCHAR 073
ENCODING 73
SWIDTH 936 0
DWIDTH 13 0
BBX 12 10 0 1
BITMAP
0800
1800
EA10
8920
88C0
88C0
8920
EA10
1800
0800
ENDCHAR
STARTCHAR 074
ENCODING 74
SWIDTH 936 0
DWIDTH 13 0
BBX 8 10 0 1
BITMAP
08
18
F8
FA
F9
F9
FA
F8
18
08
ENDCHAR
STARTCHAR 075
ENCODING 75
SWIDTH 936 0
DWIDTH 13 0
BBX 10 10 0 1
BITMAP
0800
1900
F880
FA40
F940
F940
FA40
F880
1900
0800
ENDCHAR
STARTCHAR 076
ENCODING 76
SWIDTH 936 0
DWIDTH 13 0
BBX 12 12 0 0
BITMAP
0080
0840
1920
F890
FA50
F950
F950
FA50
F890
1920
0840
0080
ENDCHAR
STARTCHAR 077
ENCODING 77
SWIDTH 936 0
DWIDTH 13 0
BBX 12 10 0 1
BITMAP
0800
1800
F840
F860
FBF0
FBF0
F860
F840
1800
0800
ENDCHAR
STARTCHAR 078
ENCODING 78
SWIDTH 936 0
DWIDTH 13 0
BBX 0 0 0 0
BITMAP
ENDCHAR
STARTCHAR 079
ENCODING 79
SWIDTH 936 0
DWIDTH 13 0
BBX 0 0 0 0
BITMAP
ENDCHAR
STARTCHAR 080
ENCODING 80
SWIDTH 792 0
DWIDTH 11 0
BBX 9 10 1 1
BITMAP
FF80
8080
8080
8080
8080
8080
8080
8080
8080
FF80
ENDCHAR
STARTCHAR 081
ENCODING 81
SWIDTH 792 0
DWIDTH 11 0
BBX 9 10 1 1
BITMAP
FF80
8080
8080
8280
8680
AC80
B880
9080
8080
FF80
ENDCHAR
STARTCHAR 082
ENCODING 82
SWIDTH 648 0
DWIDTH 9 0
BBX 7 12 1 0
BITMAP
E0
A0
E0
10
0E
0A
0E
10
10
E0
A0
E0
ENDCHAR
STARTCHAR 083
ENCODING 83
SWIDTH 792 0
DWIDTH 11 0
BBX 0 0 0 0
BITMAP
ENDCHAR
STARTCHAR 084
ENCODING 84
SWIDTH 936 0
DWIDTH 13 0
BBX 0 0 0 0
BITMAP
ENDCHAR
STARTCHAR 085
ENCODING 85
SWIDTH 792 0
DWIDTH 11 0
BBX 9 9 1 1
BITMAP
9C80
BE80
9C80
0800
0800
0800
0800
0800
1C00
ENDCHAR
STARTCHAR 086
ENCODING 86
SWIDTH 792 0
DWIDTH 11 0
BBX 5 9 3 1
BITMAP
70
F8
70
20
20
20
20
20
70
ENDCHAR
STARTCHAR 087
ENCODING 87
SWIDTH 792 0
DWIDTH 11 0
BBX 7 10 2 1
BITMAP
44
BA
FE
BA
54
10
10
10
10
38
ENDCHAR
STARTCHAR 088
ENCODING 88
SWIDTH 792 0
DWIDTH 11 0
BBX 9 11 1 1
BITMAP
4100
8080
9C80
BE80
9C80
8880
4900
0800
0800
0800
1C00
ENDCHAR
STARTCHAR 089
ENCODING 89
SWIDTH 792 0
DWIDTH 11 0
BBX 11 12 0 1
BITMAP
2080
4040
8020
8E20
9F20
8E20
8420
4440
2480
0400
0400
0E00
ENDCHAR
STARTCHAR 090
ENCODING 90
SWIDTH 792 0
DWIDTH 11 0
BBX 11 12 0 1
BITMAP
8020
4040
4040
4E40
5F40
4E40
4440
4440
8420
0400
0400
0E00
ENDCHAR
STARTCHAR 091
ENCODING 91
SWIDTH 792 0
DWIDTH 11 0
BBX 9 11 1 1
BITMAP
8080
4100
5D00
7F00
5D00
4900
8880
0800
0800
0800
1C00
ENDCHAR
STARTCHAR 092
ENCODING 92
SWIDTH 792 0
DWIDTH 11 0
BBX 5 10 3 1
BITMAP
88
F8
F8
F8
A8
20
20
20
20
70
ENDCHAR
STARTCHAR 093
ENCODING 93
SWIDTH 792 0
DWIDTH 11 0
BBX 9 12 0 1
BITMAP
8000
4000
4100
4E80
5F80
4E80
4500
4400
8400
0400
0400
0E00
ENDCHAR
STARTCHAR 094
ENCODING 94
SWIDTH 792 0
DWIDTH 11 0
BBX 9 11 1 1
BITMAP
8100
4080
5C80
7E80
5C80
4880
8900
0800
0800
0800
1C00
ENDCHAR
STARTCHAR 095
ENCODING 95
SWIDTH 792 0
DWIDTH 11 0
BBX 8 12 3 1
BITMAP
04
02
81
F1
F9
F1
A1
22
24
20
20
70
ENDCHAR
STARTCHAR 096
ENCODING 96
SWIDTH 792 0
DWIDTH 11 0
BBX 11 10 0 0
BITMAP
7000
F800
7000
2440
2EE0
27C0
2380
27C0
6EE0
0440
ENDCHAR
STARTCHAR 097
ENCODING 97
SWIDTH 792 0
DWIDTH 11 0
BBX 0 0 0 0
BITMAP
ENDCHAR
STARTCHAR 098
ENCODING 98
SWIDTH 792 0
DWIDTH 11 0
BBX 0 0 0 0
BITMAP
ENDCHAR
STARTCHAR 099
ENCODING 99
SWIDTH 792 0
DWIDTH 11 0
BBX 11 13 0 0
BITMAP
0400
4E40
4E40
0400
0400
1F00
7FC0
E0E0
4040
2080
1500
0E00
0E00
ENDCHAR
STARTCHAR 100
ENCODING 100
SWIDTH 792 0
DWIDTH 11 0
BBX 11 13 0 0
BITMAP
0400
0E00
0E00
0400
0400
1F00
7FC0
E0E0
4040
2080
1500
0E00
0E00
ENDCHAR
STARTCHAR 101
ENCODING 101
SWIDTH 792 0
DWIDTH 11 0
BBX 11 13 0 0
BITMAP
1500
2E80
2E80
1500
0400
1F00
7FC0
E0E0
4040
2080
1500
0E00
0E00
ENDCHAR
STARTCHAR 102
ENCODING 102
SWIDTH 792 0
DWIDTH 11 0
BBX 11 13 0 0
BITMAP
2480
4E40
4E40
2480
0400
1F00
7FC0
E0E0
4040
2080
1500
0E00
0E00
ENDCHAR
STARTCHAR 103
ENCODING 103
SWIDTH 792 0
DWIDTH 11 0
BBX 11 13 0 0
BITMAP
4440
8E20
8E20
4440
0400
1F00
7FC0
E0E0
4040
2080
1500
0E00
0E00
ENDCHAR
STARTCHAR 104
ENCODING 104
SWIDTH 792 0
DWIDTH 11 0
BBX 11 13 0 0
BITMAP
8420
4E40
4E40
8420
0400
1F00
7FC0
E0E0
4040
2080
1500
0E00
0E00
ENDCHAR
STARTCHAR 105
ENCODING 105
SWIDTH 792 0
DWIDTH 11 0
BBX 11 13 0 0
BITMAP
4440
2E80
2E80
4440
0400
1F00
7FC0
E0E0
4040
2080
1500
0E00
0E00
ENDCHAR
STARTCHAR 106
ENCODING 106
SWIDTH 792 0
DWIDTH 11 0
BBX 11 13 0 0
BITMAP
2480
1F00
1F00
2480
0400
1F00
7FC0
E0E0
4040
2080
1500
0E00
0E00
ENDCHAR
STARTCHAR 107
ENCODING 107
SWIDTH 792 0
DWIDTH 11 0
BBX 11 13 0 0
BITMAP
8500
4E80
4E80
8500
0400
1F00
7FC0
E0E0
4040
2080
1500
0E00
0E00
ENDCHAR
STARTCHAR 108
ENCODING 108
SWIDTH 792 0
DWIDTH 11 0
BBX 11 13 0 0
BITMAP
4480
2E40
2E40
4480
0400
1F00
7FC0
E0E0
4040
2080
1500
0E00
0E00
ENDCHAR
STARTCHAR 109
ENCODING 109
SWIDTH 792 0
DWIDTH 11 0
BBX 11 13 0 0
BITMAP
2440
1E20
1E20
2440
0400
1F00
7FC0
E0E0
4040
2080
1500
0E00
0E00
ENDCHAR
STARTCHAR 110
ENCODING 110
SWIDTH 792 0
DWIDTH 11 0
BBX 11 13 0 0
BITMAP
0400
0E00
0E00
0400
0400
1B00
6440
EEE0
47C0
2380
07C0
0EE0
0440
ENDCHAR
STARTCHAR 111
ENCODING 111
SWIDTH 792 0
DWIDTH 11 0
BBX 0 0 0 0
BITMAP
ENDCHAR
STARTCHAR 112
ENCODING 112
SWIDTH 936 0
DWIDTH 13 0
BBX 13 11 0 2
BITMAP
0F80
3FE0
78F0
E538
9548
5550
2DA0
1540
0A80
0700
0700
ENDCHAR
STARTCHAR 113
ENCODING 113
SWIDTH 936 0
DWIDTH 13 0
BBX 13 13 0 0
BITMAP
1F00
3D00
7900
E500
E300
D100
8900
FF80
01A8
0028
00C8
0010
00E0
ENDCHAR
STARTCHAR 114
ENCODING 114
SWIDTH 936 0
DWIDTH 13 0
BBX 13 13 0 0
BITMAP
E038
F8F8
9DC8
A528
A8A8
D058
A028
C018
C898
98C8
3FE0
18C0
0880
ENDCHAR
STARTCHAR 115
ENCODING 115
SWIDTH 792 0
DWIDTH 11 0
BBX 0 0 0 0
BITMAP
ENDCHAR
STARTCHAR 116
ENCODING 116
SWIDTH 792 0
DWIDTH 11 0
BBX 0 0 0 0
BITMAP
ENDCHAR
STARTCHAR 117
ENCODING 117
SWIDTH 792 0
DWIDTH 11 0
BBX 0 0 0 0
BITMAP
ENDCHAR
STARTCHAR 118
ENCODING 118
SWIDTH 792 0
DWIDTH 11 0
BBX 0 0 0 0
BITMAP
ENDCHAR
STARTCHAR 119
ENCODING 119
SWIDTH 792 0
DWIDTH 11 0
BBX 0 0 0 0
BITMAP
ENDCHAR
STARTCHAR 120
ENCODING 120
SWIDTH 792 0
DWIDTH 11 0
BBX 0 0 0 0
BITMAP
ENDCHAR
STARTCHAR 121
ENCODING 121
SWIDTH 792 0
DWIDTH 11 0
BBX 0 0 0 0
BITMAP
ENDCHAR
STARTCHAR 122
ENCODING 122
SWIDTH 792 0
DWIDTH 11 0
BBX 0 0 0 0
BITMAP
ENDCHAR
STARTCHAR 123
ENCODING 123
SWIDTH 792 0
DWIDTH 11 0
BBX 0 0 0 0
BITMAP
ENDCHAR
STARTCHAR 124
ENCODING 124
SWIDTH 792 0
DWIDTH 11 0
BBX 0 0 0 0
BITMAP
ENDCHAR
STARTCHAR 125
ENCODING 125
SWIDTH 792 0
DWIDTH 11 0
BBX 0 0 0 0
BITMAP
ENDCHAR
STARTCHAR 126
ENCODING 126
SWIDTH 792 0
DWIDTH 11 0
BBX 0 0 0 0
BITMAP
ENDCHAR
STARTCHAR 127
ENCODING 127
SWIDTH 792 0
DWIDTH 11 0
BBX 0 0 0 0
BITMAP
ENDCHAR
ENDFONT
